<svg width="40" height="40" viewBox="0 0 40 40" fill="none" xmlns="http://www.w3.org/2000/svg">
<path d="M1.99988 8.05078C1.99988 6.39393 3.34302 5.05078 4.99988 5.05078H35C36.6569 5.05078 38 6.39393 38 8.05078V13.0767H1.99988V8.05078Z" fill="#FF4F6D"/>
<rect x="1.9231" y="13.7288" width="35.9372" height="24.2712" fill="#FFF0D4"/>
<path d="M34.9492 38H5.05085C3.36594 38 2 36.6341 2 34.9492V8.10169C2 6.41678 3.36594 5.05084 5.05085 5.05084H34.9492C36.6341 5.05084 38 6.41678 38 8.10169V34.9492C38 36.6341 36.6341 38 34.9492 38Z" stroke="black" stroke-width="1.5" stroke-miterlimit="10" stroke-linejoin="round"/>
<path d="M9.84741 8.10181V2.00011" stroke="black" stroke-width="1.5" stroke-miterlimit="10" stroke-linecap="round" stroke-linejoin="round"/>
<path d="M30.1526 2.00011V8.10181" stroke="black" stroke-width="1.5" stroke-miterlimit="10" stroke-linecap="round" stroke-linejoin="round"/>
<path d="M2 13.7288H38" stroke="black" stroke-width="1.5" stroke-miterlimit="10" stroke-linecap="round" stroke-linejoin="round"/>
<path d="M20.8129 29.8391C20.3039 29.572 19.6961 29.572 19.1871 29.8391L16.3942 31.3042C16.2108 31.4004 15.9967 31.2447 16.0316 31.0406L16.563 27.9377C16.6602 27.3701 16.4719 26.791 16.0594 26.389L13.8045 24.1915C13.6562 24.0469 13.738 23.795 13.943 23.7651L17.0623 23.3109C17.6316 23.228 18.1237 22.8707 18.3788 22.3551L19.7759 19.5304C19.8677 19.3448 20.1323 19.3448 20.2241 19.5304L21.6213 22.3551C21.8763 22.8707 22.3685 23.228 22.9377 23.3109L26.0571 23.7651C26.2621 23.795 26.3439 24.0469 26.1955 24.1915L23.9406 26.389C23.5282 26.791 23.3399 27.3701 23.4371 27.9377L23.9685 31.0406C24.0034 31.2447 23.7893 31.4004 23.6059 31.3042L20.8129 29.8391Z" fill="#F7B84F" stroke="black" stroke-width="1.5"/>
</svg>
