<svg width="20" height="20" viewBox="0 0 20 20" fill="none" xmlns="http://www.w3.org/2000/svg">
<path fill-rule="evenodd" clip-rule="evenodd" d="M1.29277 1.29277C1.6833 0.902247 2.31646 0.902247 2.70698 1.29277L18.7063 17.2921C19.0968 17.6826 19.0968 18.3158 18.7063 18.7063C18.3158 19.0968 17.6826 19.0968 17.2921 18.7063L1.29277 2.70698C0.902247 2.31646 0.902247 1.6833 1.29277 1.29277Z" fill="#999999"/>
<path fill-rule="evenodd" clip-rule="evenodd" d="M18.7064 1.29289C19.0969 1.68342 19.0969 2.31658 18.7064 2.70711L2.70708 18.7064C2.31656 19.0969 1.68339 19.0969 1.29287 18.7064C0.902343 18.3159 0.902343 17.6827 1.29287 17.2922L17.2922 1.29289C17.6827 0.902369 18.3159 0.902369 18.7064 1.29289Z" fill="#999999"/>
</svg>
