<svg width="18" height="19" viewBox="0 0 18 19" fill="none" xmlns="http://www.w3.org/2000/svg">
<g clip-path="url(#clip0_0_29)">
<mask id="mask0_0_29" style="mask-type:luminance" maskUnits="userSpaceOnUse" x="0" y="0" width="18" height="19">
<path d="M18 0.5H0V18.5H18V0.5Z" fill="white"/>
<path d="M4.07812 9.99219H2.67188V8.58594H4.07812V9.99219Z" fill="white"/>
<path d="M6.89062 9.99219H5.48438V8.58594H6.89062V9.99219Z" fill="white"/>
<path d="M9.70312 9.99219H8.29688V8.58594H9.70312V9.99219Z" fill="white"/>
<path d="M12.5156 9.99219H11.1094V8.58594H12.5156V9.99219Z" fill="white"/>
<path d="M15.3281 9.99219H13.9219V8.58594H15.3281V9.99219Z" fill="white"/>
<path d="M4.07812 12.8047H2.67188V11.3984H4.07812V12.8047Z" fill="white"/>
<path d="M6.89062 12.8047H5.48438V11.3984H6.89062V12.8047Z" fill="white"/>
<path d="M9.70312 12.8047H8.29688V11.3984H9.70312V12.8047Z" fill="white"/>
<path d="M4.07812 15.6172H2.67188V14.2109H4.07812V15.6172Z" fill="white"/>
<path d="M6.89062 15.6172H5.48438V14.2109H6.89062V15.6172Z" fill="white"/>
<path d="M9.70312 15.6172H8.29688V14.2109H9.70312V15.6172Z" fill="white"/>
<path d="M13.2188 11.3263L13.9358 12.7504L15.5391 12.9787L14.3789 14.0872L14.6528 15.6524L13.2188 14.9134L11.7847 15.6524L12.0586 14.0872L10.8984 12.9787L12.5017 12.7504L13.2188 11.3263Z" fill="white"/>
</mask>
<g mask="url(#mask0_0_29)">
<mask id="mask1_0_29" style="mask-type:luminance" maskUnits="userSpaceOnUse" x="0" y="0" width="18" height="19">
<path d="M0 0.500002H18V18.5H0V0.500002Z" fill="white"/>
</mask>
<g mask="url(#mask1_0_29)">
<path d="M15.8907 17.7969H2.10941C1.33277 17.7969 0.703156 17.1673 0.703156 16.3906V4.01562C0.703156 3.23899 1.33277 2.60938 2.10941 2.60938H15.8907C16.6673 2.60938 17.2969 3.23899 17.2969 4.01562V16.3906C17.2969 17.1673 16.6673 17.7969 15.8907 17.7969Z" stroke="#BBBBBB" stroke-miterlimit="10" stroke-linejoin="round"/>
<path d="M4.78125 4.01562V1.20313" stroke="#BBBBBB" stroke-miterlimit="10" stroke-linecap="round" stroke-linejoin="round"/>
<path d="M13.2188 1.20313V4.01562" stroke="#BBBBBB" stroke-miterlimit="10" stroke-linecap="round" stroke-linejoin="round"/>
<path d="M0.703125 7.53125H17.2969" stroke="#BBBBBB" stroke-miterlimit="10" stroke-linecap="round" stroke-linejoin="round"/>
</g>
</g>
</g>
<defs>
<clipPath id="clip0_0_29">
<rect width="18" height="18" fill="white" transform="translate(0 0.5)"/>
</clipPath>
</defs>
</svg>
