<svg width="40" height="40" viewBox="0 0 40 40" fill="none" xmlns="http://www.w3.org/2000/svg">
<g clip-path="url(#clip0_634_895)">
<path fill-rule="evenodd" clip-rule="evenodd" d="M34.9804 27.5051V24.5754H32.6367C31.3476 24.5754 30.293 23.5208 30.293 22.2317C30.293 23.5208 29.2383 24.5754 27.9492 24.5754H25.6055V27.5051C25.6055 30.0958 27.7276 32.1926 30.293 32.1926C32.8584 32.1926 34.9804 30.0959 34.9804 27.5051Z" fill="#FFEEE5"/>
<path fill-rule="evenodd" clip-rule="evenodd" d="M32.4532 31.6618C31.8058 32.0007 31.0707 32.1927 30.293 32.1927C29.5152 32.1927 28.7801 32.0007 28.1327 31.6617L27.8469 33.4409C27.8469 34.7918 28.942 35.887 30.293 35.887C31.6439 35.887 32.739 34.7918 32.739 33.4409L32.4532 31.6618Z" fill="#FFEEE5"/>
<path fill-rule="evenodd" clip-rule="evenodd" d="M30.2929 35.8871C28.942 35.8871 27.8468 34.7919 27.8468 33.441L23.982 34.8461C22.5297 35.374 21.1718 36.6968 21.1718 38.2422V39.4141H39.414V38.2422C39.414 36.6974 38.056 35.3741 36.6038 34.8461L32.739 33.441C32.739 34.7919 31.6438 35.8871 30.2929 35.8871Z" fill="#5DD1D1"/>
<path fill-rule="evenodd" clip-rule="evenodd" d="M27.9492 24.5755C29.2383 24.5755 30.293 23.5208 30.293 22.2317C30.293 23.5208 31.3476 24.5755 32.6367 24.5755H34.9804V27.5051C34.9804 29.3055 33.9518 30.8773 32.4532 31.6617H36.1522C36.7966 31.6617 37.3241 31.1341 37.3241 30.4898V23.7941C37.3241 19.927 34.1601 16.7629 30.293 16.7629C26.4258 16.7629 23.2618 19.927 23.2618 23.7941V30.4898C23.2618 31.1341 23.7893 31.6617 24.4337 31.6617H28.1326C26.6341 30.8773 25.6055 29.3055 25.6055 27.5051V24.5755H27.9492Z" fill="#6E91EF"/>
<path fill-rule="evenodd" clip-rule="evenodd" d="M11.8673 31.6618C11.2199 32.0007 10.4848 32.1927 9.70702 32.1927C8.92928 32.1927 8.19413 32.0007 7.54678 31.6617L7.26093 33.4409C7.26093 34.7918 8.35608 35.887 9.70702 35.887C11.058 35.887 12.1531 34.7918 12.1531 33.4409L11.8673 31.6618Z" fill="#FFEEE5"/>
<path fill-rule="evenodd" clip-rule="evenodd" d="M9.70703 35.8871C8.35609 35.8871 7.26094 34.7919 7.26094 33.441L3.39617 34.8461C1.94383 35.3741 0.585938 36.6968 0.585938 38.2422V39.4141H18.8281V38.2422C18.8281 36.6974 17.4702 35.3741 16.0179 34.8461L12.1531 33.441C12.1531 34.7919 11.058 35.8871 9.70703 35.8871Z" fill="#FF8E8E"/>
<path fill-rule="evenodd" clip-rule="evenodd" d="M9.7071 16.763C5.83999 16.763 2.67592 19.9273 2.67592 23.7943V27.6775C2.67592 30.6269 0.585924 32.1927 3.39616 34.8461L7.26092 33.441L7.54678 31.6619C6.04827 30.8774 5.0196 29.3056 5.0196 27.5053V24.5756C6.30866 24.5756 7.36335 23.5209 7.36335 22.2319C7.36335 23.5209 8.41803 24.5756 9.7071 24.5756H14.3945V27.5053C14.3945 29.3056 13.3658 30.8774 11.8673 31.6619L12.1533 33.4411L16.0182 34.8462C18.8284 32.1928 16.7384 30.6269 16.7384 27.6776V23.7944C16.7383 19.9272 13.5742 16.763 9.7071 16.763Z" fill="#FFA338"/>
<path fill-rule="evenodd" clip-rule="evenodd" d="M14.3945 27.5051V24.5754H9.70709C8.41803 24.5754 7.36334 23.5208 7.36334 22.2317C7.36334 23.5208 6.30865 24.5754 5.01959 24.5754V27.5051C5.01959 30.0958 7.14162 32.1926 9.70701 32.1926C12.2724 32.1926 14.3945 30.0959 14.3945 27.5051Z" fill="#FFEEE5"/>
<path d="M32.319 31.3314H35.9783C36.6157 31.3314 37.1375 30.8095 37.1375 30.1722V23.5486C37.1375 19.7232 34.0075 16.5931 30.1821 16.5931C26.3567 16.5931 23.2267 19.7232 23.2267 23.5486V30.1722C23.2267 30.8095 23.7485 31.3314 24.3859 31.3314H28.0452" stroke="black" stroke-width="1.5" stroke-miterlimit="22.9256"/>
<path fill-rule="evenodd" clip-rule="evenodd" d="M30.182 22.0029C30.182 23.2781 31.2253 24.3214 32.5005 24.3214H34.8189V27.2195C34.8189 29.7699 32.7322 31.8565 30.182 31.8565C27.6317 31.8565 25.545 29.7699 25.545 27.2195V24.3214H27.8635C29.1386 24.3214 30.182 23.2782 30.182 22.0029Z" stroke="black" stroke-width="1.5" stroke-miterlimit="22.9256"/>
<path d="M28.045 31.3312L27.7622 33.0912L23.9391 34.4812C22.5024 35.0034 21.1591 36.312 21.1591 37.8407V39H39.2048V37.8407C39.2048 36.3125 37.8615 35.0035 36.4249 34.4812L32.6018 33.0912L32.319 31.3312" stroke="black" stroke-width="1.5" stroke-miterlimit="22.9256" stroke-linejoin="round"/>
<path d="M32.6017 33.0914C32.6017 34.4278 31.5184 35.5111 30.182 35.5111C28.8456 35.5111 27.7623 34.4278 27.7623 33.0914" stroke="black" stroke-width="1.5" stroke-miterlimit="22.9256"/>
<path d="M3.57505 34.4813C0.795093 31.8566 2.86257 30.3076 2.86257 27.39V23.5486C2.86257 19.7232 5.99255 16.5931 9.81799 16.5931C13.6434 16.5931 16.7734 19.7232 16.7734 23.5486V27.39C16.7734 30.3076 18.8409 31.8566 16.0609 34.4813" stroke="black" stroke-width="1.5" stroke-miterlimit="22.9256"/>
<path fill-rule="evenodd" clip-rule="evenodd" d="M7.49945 22.0029C7.49945 23.2781 8.54277 24.3214 9.81795 24.3214H14.4549V27.2195C14.4549 29.7699 12.3682 31.8565 9.81795 31.8565C7.26768 31.8565 5.18103 29.7699 5.18103 27.2195V24.3214C6.45613 24.3214 7.49945 23.2782 7.49945 22.0029Z" stroke="black" stroke-width="1.5" stroke-miterlimit="22.9256"/>
<path d="M7.39819 33.0912L7.65445 33.7961L8.06875 33.6454L8.13869 33.2102L7.39819 33.0912ZM3.57506 34.4812L3.3188 33.7763L3.31879 33.7763L3.57506 34.4812ZM0.795105 39H0.045105C0.045105 39.4142 0.380891 39.75 0.795105 39.75L0.795105 39ZM18.8407 39V39.75C19.255 39.75 19.5907 39.4142 19.5907 39H18.8407ZM16.0608 34.4812L16.3171 33.7763L16.317 33.7763L16.0608 34.4812ZM12.2377 33.0912L11.4972 33.2102L11.5671 33.6455L11.9814 33.7961L12.2377 33.0912ZM6.94046 31.2123L6.65768 32.9722L8.13869 33.2102L8.42147 31.4502L6.94046 31.2123ZM7.14193 32.3863L3.3188 33.7763L3.83132 35.186L7.65445 33.7961L7.14193 32.3863ZM3.31879 33.7763C1.72481 34.3558 0.045105 35.8706 0.045105 37.8407H1.5451C1.5451 36.7534 2.55192 35.6512 3.83133 35.186L3.31879 33.7763ZM0.045105 37.8407V39H1.5451V37.8407H0.045105ZM0.795105 39.75H18.8407V38.25H0.795105V39.75ZM19.5907 39V37.8407H18.0907V39H19.5907ZM19.5907 37.8407C19.5907 35.8712 17.9111 34.3559 16.3171 33.7763L15.8045 35.186C17.0838 35.6512 18.0907 36.7539 18.0907 37.8407H19.5907ZM16.317 33.7763L12.4939 32.3863L11.9814 33.7961L15.8045 35.186L16.317 33.7763ZM12.9782 32.9722L12.6953 31.2122L11.2143 31.4502L11.4972 33.2102L12.9782 32.9722Z" fill="black"/>
<path d="M12.2377 33.0914C12.2377 34.4278 11.1544 35.5111 9.81799 35.5111C8.48161 35.5111 7.39825 34.4278 7.39825 33.0914" stroke="black" stroke-width="1.5" stroke-miterlimit="22.9256"/>
<path d="M30.304 0.849453H9.69592C8.75739 0.849453 7.99646 1.61038 7.99646 2.54898V10.2773C7.99646 11.2159 8.75739 11.9768 9.69592 11.9768H30.304C31.2427 11.9768 32.0035 11.2159 32.0035 10.2773V2.54898C32.0035 1.61038 31.2427 0.849453 30.304 0.849453Z" fill="#F7B84F" stroke="black" stroke-width="1.5" stroke-miterlimit="10" stroke-linecap="round" stroke-linejoin="round"/>
<path d="M21.3884 3.69099H19.1819V9.13495" stroke="black" stroke-width="1.5" stroke-miterlimit="10" stroke-linecap="round" stroke-linejoin="round"/>
<path d="M19.1819 6.36148H21.2131" stroke="black" stroke-width="1.5" stroke-miterlimit="10" stroke-linecap="round" stroke-linejoin="round"/>
<path d="M27.4111 3.69099H25.2047V9.13495" stroke="black" stroke-width="1.5" stroke-miterlimit="10" stroke-linecap="round" stroke-linejoin="round"/>
<path d="M25.2047 6.36148H27.2358" stroke="black" stroke-width="1.5" stroke-miterlimit="10" stroke-linecap="round" stroke-linejoin="round"/>
<path d="M15.4437 4.93276C15.4437 5.62975 14.8788 6.19468 14.1818 6.19468C13.8361 6.19468 12.5887 6.20029 12.5887 6.20029V4.93276V3.67091H14.1818C14.8788 3.67091 15.4437 4.23584 15.4437 4.93276Z" stroke="black" stroke-width="1.5" stroke-miterlimit="10" stroke-linecap="round" stroke-linejoin="round"/>
<path d="M15.9363 7.67237C15.9363 8.48764 15.2754 9.14855 14.4601 9.14855C14.0558 9.14855 12.5889 9.15509 12.5889 9.15509V7.67237V6.1962H14.4601C15.2754 6.1962 15.9363 6.8571 15.9363 7.67237Z" stroke="black" stroke-width="1.5" stroke-miterlimit="10" stroke-linecap="round" stroke-linejoin="round"/>
</g>
<defs>
<clipPath id="clip0_634_895">
<rect width="40" height="40" fill="white"/>
</clipPath>
</defs>
</svg>
