<svg width="40" height="40" viewBox="0 0 40 40" fill="none" xmlns="http://www.w3.org/2000/svg">
<g clip-path="url(#clip0_634_888)">
<path d="M2.05865 29.6888L11.5583 20.1951C12.8181 18.9395 12.8272 16.9021 11.5788 15.6353C10.3287 14.3665 8.28789 14.3475 7.01441 15.593L1.05294 21.5544" stroke="black" stroke-width="1.5" stroke-miterlimit="10" stroke-linecap="round" stroke-linejoin="round"/>
<path d="M21.2316 34.38H17.3834C15.4361 34.38 14.4656 32.0212 15.8493 30.6508C16.7666 29.7421 16.6977 28.2396 15.7009 27.4189C14.6446 26.549 13.0991 26.6287 12.1379 27.6028L9.04253 30.7397L5.94716 33.8767C4.84179 34.9969 3.03961 35.0155 1.91144 33.9182C0.765123 32.8032 0.753762 30.9656 1.88634 29.8366L4.24994 27.4804" stroke="black" stroke-width="1.5" stroke-miterlimit="10" stroke-linecap="round" stroke-linejoin="round"/>
<path d="M30.9707 11.4259L31.1405 7.77443C31.2047 6.39503 32.7071 5.57351 33.9031 6.26392L38.1166 8.69667C39.3126 9.38716 39.3523 11.0991 38.1897 11.8444L35.1124 13.8172" fill="#D6BBAB"/>
<path d="M30.9707 11.4259L31.1405 7.77443C31.2047 6.39503 32.7071 5.57351 33.9031 6.26392L38.1166 8.69667C39.3126 9.38716 39.3523 11.0991 38.1897 11.8444L35.1124 13.8172" stroke="black" stroke-width="1.5" stroke-miterlimit="10" stroke-linecap="round" stroke-linejoin="round"/>
<path d="M37.1022 23.134L21.4771 34.2057L20.1313 33.4288L21.9072 14.3612C22.2445 10.7387 26.2201 8.68321 29.3709 10.5023L36.7122 14.7408C39.8629 16.5599 40.0707 21.0307 37.1022 23.134Z" fill="#C88E6D" stroke="black" stroke-width="1.5" stroke-miterlimit="10" stroke-linecap="round" stroke-linejoin="round"/>
<path d="M26.6223 17.4854L25.3199 20.8114" stroke="black" stroke-width="1.5" stroke-miterlimit="10" stroke-linecap="round" stroke-linejoin="round"/>
<path d="M32.0589 20.6242L28.7815 23.696" stroke="black" stroke-width="1.5" stroke-miterlimit="10" stroke-linecap="round" stroke-linejoin="round"/>
<path d="M33.8844 11.1617L33.0416 12.6215" stroke="black" stroke-width="1.5" stroke-miterlimit="10" stroke-linecap="round" stroke-linejoin="round"/>
<path d="M20.6752 27.5887L26.2151 30.7871" stroke="black" stroke-width="1.5" stroke-miterlimit="10" stroke-linecap="round" stroke-linejoin="round"/>
<path d="M11.3911 8.13388L14.2759 9.57629" stroke="#D99BFF" stroke-width="2" stroke-linecap="round"/>
<path d="M26.0172 30.914L20.6276 27.7411L20.1061 33.6956L21.4535 34.391L26.0172 30.914Z" fill="#D6BBAB" stroke="black"/>
<path d="M9.79184 38.9831L13.6216 38.2171" stroke="#5DD1D1" stroke-width="2" stroke-linecap="round"/>
<path d="M5.98544 1.09219L4.35766 3.9116" stroke="#FFA800" stroke-width="2" stroke-linecap="round"/>
</g>
<defs>
<clipPath id="clip0_634_888">
<rect width="40" height="40" fill="white"/>
</clipPath>
</defs>
</svg>
