<svg viewBox="0 0 139 40" fill="none" xmlns="http://www.w3.org/2000/svg">
<path d="M132.219 9.34027H132.104C130.185 9.34027 128.279 10.0161 126.411 11.3613C126.328 11.2083 126.232 11.0553 126.13 10.9087C125.588 10.1117 124.562 9.16814 122.745 9.16814C120.048 9.16814 117.223 13.937 117.223 13.937L112.544 9.46778C112.544 9.46778 115.132 2.5376 114.042 2.5376C112.729 2.5376 111.485 3.04126 110.453 3.98484C109.375 4.96667 108.801 6.08876 108.763 7.30011C108.712 8.76648 109.254 9.65905 109.726 10.1563C108.674 10.915 107.807 12.1072 107.176 13.6756C106.768 13.4142 106.302 13.2612 105.805 13.2612C105.722 13.2612 105.645 13.2612 105.563 13.274C105.524 12.8659 101.916 9.09163 101.916 9.09163C101.916 9.09163 99.0595 9.6718 97.8227 10.8066C97.0321 9.69093 95.9164 9.08525 94.6477 9.08525C94.5521 9.08525 94.4564 9.08525 94.3544 9.098C93.3917 9.16814 92.4354 9.77381 90.816 11.3358C90.7395 11.4059 90.6757 11.4888 90.6056 11.559C90.5291 11.3932 90.4399 11.2402 90.3251 11.0935C90.0764 10.7875 86.3213 9.63992 85.3203 9.63992L86.5827 3.32179C86.5827 3.32179 84.313 3.69794 82.8466 4.463C81.0041 5.44483 80.0095 6.55417 79.7927 7.85478L79.3911 10.2775H79.2891C78.2371 10.2775 77.0959 11.8905 77.0959 11.8905C77.0959 11.8905 74.7242 9.34665 71.6321 9.34665C68.151 9.34665 65.0972 10.6664 62.5533 13.2803C62.4131 13.427 62.1581 13.7203 62.1581 13.7203L55.9929 9.34665C55.9929 9.34665 49.458 10.6664 46.9142 13.2803C46.6656 13.5354 46.2129 14.0518 46.2129 14.0518L41.2527 8.97049H40.9914C40.9914 8.97049 37.5422 9.58892 36.3436 10.8003C35.7953 9.93957 34.7306 9.02787 32.6649 8.97049C32.582 8.97049 32.4928 8.97049 32.4035 8.97049C30.51 8.97049 28.9225 9.60805 27.7112 10.8449C27.6474 10.7556 27.5773 10.6728 27.5071 10.5899C26.9525 9.93957 25.9451 9.16814 24.2747 9.16814C24.109 9.16814 23.9305 9.17451 23.7583 9.19364C22.7127 9.29565 21.5524 9.9587 19.984 11.3422L19.372 11.8969L12.9773 8.29469C12.9773 8.29469 12.6076 8.29469 12.4163 8.30744C10.1147 8.37757 8.18932 9.00875 6.69107 10.1818C5.35859 11.2338 4.59991 12.477 4.42139 13.8796C4.2365 15.4289 4.59353 16.9016 5.47335 18.2724C3.33118 18.7633 1.72455 20.6759 1.60341 22.9456C1.4759 25.2599 2.64262 27.1152 4.87405 28.1736C6.22566 28.8047 7.84504 29.1171 9.68757 29.1171C9.86608 29.1171 10.051 29.1171 10.2359 29.1108C12.3079 29.047 14.1313 28.5625 15.6551 27.6826C17.3127 26.7263 18.1351 25.5405 18.5049 24.4247C18.6834 25.464 19.0915 26.3374 19.7545 27.0196C20.7172 28.0205 22.1071 28.5242 23.8795 28.5242C25.6519 28.5242 27.2649 27.9568 28.8651 26.8411L28.8779 26.8283L28.8906 26.8156C28.9608 26.7646 29.0309 26.7136 29.101 26.6626C30.0956 27.8739 31.46 28.5242 33.0347 28.5242C36.0758 28.5242 38.7535 27.4276 41.0105 25.2663C41.9031 24.412 42.6936 23.4047 43.3949 22.2762C43.5352 23.5896 43.9623 24.7818 44.6637 25.821C45.5945 27.2491 47.4689 28.9386 51.122 28.9386C54.7752 28.9386 57.6825 27.5679 59.882 25.0942C60.0095 25.3428 60.1498 25.5851 60.3028 25.8146C61.2336 27.2427 63.108 28.9322 66.7612 28.9322C70.4144 28.9322 73.7488 27.3894 75.9738 24.5841C76.5922 23.8063 76.707 21.4984 76.2735 20.6058C75.9674 19.9746 77.3892 22.8372 77.4147 23.953C77.4402 25.8911 78.3519 27.4595 79.9075 28.2373C80.7236 28.6453 81.6863 28.843 82.8402 28.843C85.8176 28.843 88.1893 27.1853 89.356 24.3036C89.6748 23.5194 89.6748 21.2944 89.6429 22.1742C89.5664 24.1889 90.0701 25.7827 91.1348 26.8984C92.1612 28.0014 93.7105 28.6135 95.7252 28.7091H95.8399C96.5795 28.7091 97.2808 28.3903 97.7653 27.8357C98.2499 27.281 98.4666 26.5414 98.3646 25.8146C98.2945 25.2982 98.269 24.5905 98.2817 23.7043C98.3136 22.6651 98.4985 21.645 98.83 20.6696C99.4485 22.0849 100.698 22.8946 102.279 22.8946C103.618 22.8946 105.55 22.2889 107.105 19.42C107.533 18.6549 107.864 17.8643 108.1 17.0738C108.196 17.1312 108.298 17.1885 108.4 17.2332C108.285 17.6539 108.119 18.2596 107.877 19.1203C107.284 21.2179 106.978 22.7671 106.946 23.8573C106.901 25.2217 107.265 26.382 108.03 27.3129C108.604 28.0078 109.675 28.8494 111.492 28.8494C113.889 28.8494 115.808 28.0078 117.077 26.4777C116.401 30.0161 116.044 32.4388 115.999 33.8414C115.885 37.5774 117.81 39.8726 121.151 40.0001C121.246 40.0001 121.336 40.0001 121.418 40.0001C123.357 40.0001 126.034 39.2733 127.807 35.805C128.208 35.0145 128.177 34.0454 127.711 33.2803C127.278 32.5727 126.551 32.1264 125.735 32.069C125.645 31.8841 125.48 31.3804 125.48 30.2647C125.48 29.7164 125.505 29.1554 125.55 28.6135C125.607 28.6135 125.658 28.6135 125.716 28.6135C126.104 28.6135 126.506 28.588 126.921 28.5306C130.465 28.1034 133.322 26.4012 135.4 23.462C136.841 21.4474 137.702 19.1968 137.963 16.7741C137.995 16.4554 138.014 16.1174 138.014 15.7732C138.014 11.763 135.897 9.41041 132.199 9.3339L132.219 9.34027ZM6.61457 20.0384C6.61457 20.0384 6.65282 20.0384 6.67195 20.0384C6.69108 20.0384 6.70383 20.0384 6.71658 20.0384C6.6847 20.0384 6.64645 20.0384 6.61457 20.0384ZM15.3171 15.6775C15.3171 15.6775 15.298 15.6775 15.2916 15.6775C15.3171 15.6775 15.349 15.6775 15.3745 15.6775C15.3554 15.6775 15.3363 15.6775 15.3108 15.6775H15.3171ZM95.8463 26.7964H95.8144C95.8782 26.7964 95.9355 26.7773 95.9929 26.7646C95.9419 26.7773 95.8973 26.7964 95.8463 26.7964Z" fill="#F53354"/>
<path d="M16.0885 10.5261C16.2224 11.61 15.6677 12.7576 14.5647 13.0445C13.8252 13.2357 12.8943 13.1911 12.2759 12.7065C12.1038 12.5727 12.0145 12.3495 12.0464 12.1328C12.091 11.8204 12.4417 11.6546 12.4417 11.3231C12.4672 11.1573 12.3779 11.017 12.1675 10.9023C11.6065 10.609 10.8478 10.7301 10.478 11.2657C10.2039 11.661 10.1592 12.1901 10.274 12.6555C10.3888 13.121 10.6629 13.5417 10.9689 13.9115C11.3897 14.4279 11.8487 14.9189 12.3142 15.3906C13.9909 17.0674 14.9281 18.2532 15.1194 18.9546C15.2278 19.3753 15.2852 19.7642 15.2852 20.1277C15.2852 21.5239 14.5583 22.6396 13.1047 23.4812C11.8487 24.208 10.3378 24.5969 8.57811 24.6543C6.78659 24.7117 5.29472 24.4566 4.08974 23.902C2.55324 23.1752 1.82644 22.0467 1.90932 20.5102C1.98582 19.0566 3.09516 17.7815 4.50415 17.5583C5.53699 17.3989 6.23192 17.6795 6.67183 18.0301C7.04798 18.3234 6.95873 18.9036 6.52519 19.1139C6.2893 19.2287 6.0279 19.4072 5.77288 19.6814C5.54336 19.93 5.44773 20.1914 5.46686 20.5102C5.49236 20.9565 5.90039 21.2115 6.68458 21.2625C7.51977 21.3199 8.17007 21.1541 8.63549 20.7588C9.09452 20.3699 9.29854 19.8663 9.24116 19.2478C9.21566 18.8015 8.763 18.1576 7.9023 17.3224C6.75471 16.2322 6.0024 15.4353 5.63899 14.9316C4.88668 13.8669 4.57428 12.7512 4.71454 11.5781C4.82293 10.6855 5.34572 9.87582 6.26379 9.14901C7.43689 8.23094 8.97339 7.74002 10.8733 7.68264C14.0866 7.57426 15.8207 8.52421 16.0693 10.5325L16.0885 10.5261Z" fill="#FFE1E8"/>
<path d="M11.3834 7.66974C14.2779 7.66974 15.8462 8.62606 16.0885 10.5323C16.2224 11.6162 15.6677 12.7638 14.5648 13.0507C14.3034 13.1208 14.0228 13.1591 13.7359 13.1591C13.2068 13.1591 12.6776 13.0315 12.2759 12.7128C12.1038 12.5789 12.0145 12.3557 12.0464 12.139C12.0911 11.8266 12.4417 11.6608 12.4417 11.3293C12.4672 11.1635 12.378 11.0233 12.1676 10.9085C11.9699 10.8065 11.7468 10.7555 11.5236 10.7555C11.122 10.7555 10.7203 10.9276 10.478 11.2719C10.2039 11.6672 10.1593 12.1964 10.274 12.6618C10.3952 13.1272 10.6629 13.548 10.969 13.9177C11.3897 14.4342 11.8488 14.9251 12.3142 15.3969C13.991 17.0736 14.9282 18.2595 15.1194 18.9608C15.2278 19.3816 15.2852 19.7705 15.2852 20.1339C15.2852 21.5301 14.5584 22.6458 13.1048 23.4874C11.8488 24.2142 10.3378 24.6031 8.57814 24.6605C8.41238 24.6605 8.25299 24.6669 8.0936 24.6669C6.51885 24.6669 5.18637 24.4118 4.09616 23.9018C2.55966 23.175 1.83285 22.0465 1.91573 20.51C1.99223 19.0564 3.10158 17.7813 4.51056 17.5582C4.71458 17.5263 4.90585 17.5135 5.08436 17.5135C5.81117 17.5135 6.32759 17.7494 6.68461 18.03C7.06077 18.3232 6.97151 18.9034 6.53798 19.1138C6.30208 19.2285 6.04069 19.4071 5.78567 19.6812C5.55615 19.9299 5.46052 20.1913 5.47964 20.51C5.50514 20.9563 5.91318 21.2113 6.69737 21.2623C6.80575 21.2687 6.90776 21.2751 7.00339 21.2751C7.69195 21.2751 8.24024 21.103 8.6419 20.7587C9.10094 20.3698 9.30495 19.8661 9.24757 19.2477C9.22207 18.8014 8.76941 18.1575 7.90871 17.3223C6.76112 16.2321 6.00881 15.4351 5.64541 14.9314C4.8931 13.8667 4.58069 12.751 4.72096 11.5779C4.82934 10.6854 5.35213 9.87566 6.27021 9.14886C7.4433 8.23078 8.9798 7.73987 10.8797 7.68249C11.0455 7.68249 11.2112 7.67611 11.3706 7.67611M11.3706 5.76346C11.1857 5.76346 11.0008 5.76346 10.8096 5.77621C8.50801 5.84634 6.58261 6.47751 5.08436 7.65061C3.75188 8.70257 2.99319 9.9458 2.81468 11.3484C2.62979 12.8977 2.98682 14.3704 3.86664 15.7411C1.74359 16.2193 0.13696 18.132 0.00944956 20.3953C-0.118061 22.7096 1.04866 24.5649 3.28009 25.6232C4.6317 26.2544 6.25108 26.5668 8.0936 26.5668C8.27212 26.5668 8.45701 26.5668 8.6419 26.5604C10.7139 26.4966 12.5373 26.0121 14.0611 25.1323C16.6559 23.634 17.1978 21.5811 17.1978 20.1211C17.1978 19.592 17.1213 19.0373 16.9683 18.4571C16.7771 17.7813 16.3371 16.8569 14.5903 14.9888C14.7433 14.9633 14.8963 14.9314 15.0429 14.8932C16.9811 14.3832 18.2434 12.4067 17.982 10.2901C17.7716 8.59419 16.6304 5.75708 11.3834 5.75708L11.3706 5.76346Z" fill="#F53354"/>
<path d="M42.7127 11.8267C42.6808 12.834 42.3238 14.1729 41.6225 15.8496C40.7299 18.1129 39.5568 19.9427 38.1095 21.339C36.216 23.156 33.9973 24.0613 31.4535 24.0613C30.4525 24.0613 29.6301 23.6724 28.9862 22.8882C28.4251 22.2188 28.1637 21.5047 28.1892 20.7524C27.7685 21.3963 27.1054 22.053 26.181 22.7224C24.8995 23.6214 23.5989 24.0613 22.2919 24.0613C19.8373 24.0613 18.6515 22.8627 18.7343 20.4591C18.7598 19.6176 18.9894 18.3935 19.4229 16.7677C19.8819 15.0336 20.1178 14.1155 20.1178 14.0007C20.1178 13.2739 19.8628 12.9105 19.3655 12.9105C19.2954 12.9105 18.8682 12.8659 18.3901 12.8149C17.8418 12.7575 17.6186 12.0753 18.0267 11.7056C18.5686 11.2146 19.1169 10.7173 19.6588 10.2264C20.8574 9.16172 21.7563 8.60705 22.3429 8.54967C23.2673 8.46679 23.9686 8.70906 24.4596 9.28286C24.9505 9.85665 25.18 10.6026 25.1481 11.527C25.1226 12.2538 24.9632 13.3568 24.6891 14.8359C24.4086 16.3214 24.2555 17.3224 24.23 17.8516C24.2045 18.8589 24.4787 19.3625 25.0652 19.3625C25.8494 19.3625 26.6081 18.7633 27.3477 17.5583C28.0872 16.3597 28.4825 15.1738 28.5399 13.9944C28.5654 13.5736 28.4634 13.2038 28.2275 12.885C27.9916 12.5662 27.6601 12.4005 27.2393 12.4005C27.1309 12.4005 27.0161 12.4005 26.9014 12.4196C26.4168 12.4706 26.0789 11.9478 26.2702 11.5015C27.2074 9.31473 28.7885 8.26277 31.0136 8.3329C32.1038 8.36478 32.8306 8.70906 33.194 9.37849C33.4427 9.85665 33.5574 10.6663 33.5255 11.8076C33.5 12.477 33.3088 13.5608 32.9581 15.0527C32.6075 16.5509 32.4353 17.5073 32.4353 17.9217C32.4098 18.8716 32.8115 19.3498 33.6531 19.3498C34.4309 19.3498 35.1959 18.7505 35.9355 17.5455C36.6751 16.3469 37.0767 15.1611 37.1277 13.9816C37.1596 13.5608 37.0512 13.191 36.8153 12.8723C36.5794 12.5535 36.2479 12.3877 35.8335 12.3877C35.7187 12.3877 35.6103 12.3877 35.4956 12.4069C35.011 12.4579 34.6731 11.9351 34.8644 11.4952C35.7952 9.30836 37.3764 8.2564 39.6078 8.32653C41.7563 8.38391 42.7956 9.54425 42.7063 11.8076L42.7127 11.8267Z" fill="#FFE1E8"/>
<path d="M39.3973 8.34544C39.4675 8.34544 39.5376 8.34544 39.6077 8.34544C41.7563 8.40282 42.7955 9.56316 42.7062 11.8265C42.6744 12.8338 42.3173 14.1727 41.616 15.8494C40.7235 18.1127 39.5504 19.9425 38.1031 21.3387C36.2096 23.1558 33.9909 24.0611 31.4471 24.0611C30.4461 24.0611 29.6237 23.6722 28.9798 22.888C28.4187 22.2186 28.1573 21.5045 28.1828 20.7522C27.762 21.3961 27.099 22.0528 26.1745 22.7222C24.893 23.6212 23.5924 24.0611 22.2855 24.0611C19.8309 24.0611 18.645 22.8625 18.7279 20.4589C18.7534 19.6174 18.9829 18.3933 19.4165 16.7675C19.8755 15.0334 20.1114 14.1153 20.1114 14.0005C20.1114 13.2737 19.8564 12.9103 19.3591 12.9103C19.289 12.9103 18.8618 12.8657 18.3836 12.8147C17.8354 12.7573 17.6122 12.0751 18.0202 11.7053C18.5622 11.2144 19.1105 10.7171 19.6524 10.2262C20.851 9.16151 21.7499 8.60684 22.3365 8.54946C22.4512 8.5367 22.566 8.53033 22.6807 8.53033C23.4394 8.53033 24.026 8.77897 24.4531 9.28264C24.9441 9.85644 25.1736 10.6024 25.1417 11.5268C25.1162 12.2536 24.9568 13.3566 24.6827 14.8357C24.4021 16.3212 24.2491 17.3222 24.2236 17.8513C24.1981 18.8587 24.4723 19.3623 25.0588 19.3623C25.843 19.3623 26.6017 18.763 27.3412 17.5581C28.0808 16.3595 28.4761 15.1736 28.5335 13.9941C28.559 13.5734 28.457 13.2036 28.2211 12.8848C27.9852 12.566 27.6536 12.4003 27.2329 12.4003C27.1245 12.4003 27.0097 12.4003 26.895 12.4194C26.8695 12.4194 26.8503 12.4194 26.8312 12.4194C26.3849 12.4194 26.0853 11.9285 26.2638 11.5013C27.1691 9.38465 28.6801 8.32631 30.7904 8.32631C30.8605 8.32631 30.9307 8.32631 31.0008 8.32631C32.091 8.35819 32.8178 8.70247 33.1812 9.3719C33.4299 9.85006 33.5446 10.6598 33.5127 11.801C33.4872 12.4704 33.296 13.5542 32.9453 15.0461C32.5947 16.5444 32.4225 17.5007 32.4225 17.9151C32.397 18.865 32.7987 19.3432 33.6403 19.3432C34.4181 19.3432 35.1831 18.7439 35.9227 17.5389C36.6623 16.3403 37.0639 15.1545 37.1149 13.975C37.1468 13.5542 37.0384 13.1845 36.8025 12.8657C36.5666 12.5469 36.2351 12.3811 35.8207 12.3811C35.7059 12.3811 35.5975 12.3811 35.4828 12.4003C35.4573 12.4003 35.4382 12.4003 35.419 12.4003C34.9727 12.4003 34.6731 11.9094 34.8516 11.4822C35.7569 9.36552 37.2679 8.30719 39.3782 8.30719M39.3782 6.39453C37.5038 6.39453 35.9291 7.01933 34.7305 8.2243C34.1822 7.36361 33.1175 6.45191 31.0518 6.39453C30.9689 6.39453 30.8797 6.39453 30.7904 6.39453C28.8969 6.39453 27.3094 7.03208 26.1044 8.26893C26.0406 8.17968 25.9705 8.09679 25.9004 8.01391C25.3457 7.36361 24.3384 6.59217 22.668 6.59217C22.5022 6.59217 22.3237 6.59855 22.1516 6.61767C21.106 6.71968 19.9456 7.38274 18.3773 8.76622L16.726 10.2581C15.9801 10.9339 15.7059 11.9859 16.012 12.9358C16.3052 13.8284 17.0639 14.4851 17.9756 14.6572C17.88 15.027 17.7461 15.537 17.5612 16.2447C17.083 18.0171 16.8408 19.3687 16.8089 20.3633C16.7515 22.0783 17.1978 23.4554 18.1541 24.4372C19.1168 25.4382 20.5067 25.9419 22.2791 25.9419C24.0515 25.9419 25.6645 25.3744 27.2647 24.2587L27.2775 24.246L27.2902 24.2332C27.3604 24.1822 27.4305 24.1312 27.5006 24.0802C28.4952 25.2916 29.8596 25.9419 31.4343 25.9419C34.4754 25.9419 37.1532 24.8453 39.4101 22.684C41.055 21.0965 42.3875 19.0308 43.3757 16.5316C44.1662 14.6317 44.5679 13.1016 44.6061 11.8456C44.6699 10.1752 44.2427 8.83635 43.3374 7.87365C42.4576 6.93645 41.2144 6.44554 39.646 6.40091C39.5631 6.40091 39.4739 6.40091 39.3846 6.40091L39.3782 6.39453ZM34.7751 15.6199C34.7879 15.5689 34.8006 15.5243 34.807 15.4733C34.909 15.0461 34.9919 14.6572 35.0684 14.2938C35.1002 14.2938 35.1321 14.3002 35.164 14.3065C35.1003 14.7337 34.9727 15.1736 34.7751 15.6263V15.6199Z" fill="#F53354"/>
<path d="M49.5409 24.4822C47.2775 24.4822 45.6582 23.7299 44.6763 22.2189C43.9814 21.1861 43.6435 19.9556 43.669 18.5275C43.6945 16.2642 44.7018 14.1156 46.6846 12.0754C48.8651 9.83764 51.4344 8.72192 54.3926 8.72192C57.1277 8.72192 58.5813 9.83764 58.7535 12.0754C58.8619 13.4972 58.0841 14.9636 56.4073 16.4746C54.6158 18.1258 52.3716 19.1714 49.6556 19.6177C50.1593 20.319 52.2823 20.574 53.2897 20.574C54.297 20.574 55.5338 20.217 56.5412 19.8536C57.1468 19.6368 57.6441 20.3509 57.2489 20.8545C56.0056 22.4229 53.6021 24.4758 49.5345 24.4758L49.5409 24.4822ZM53.8188 13.5036C53.8443 12.7513 53.5383 12.3751 52.9008 12.3751C52.0592 12.3751 51.2112 12.9553 50.3442 14.1156C49.4771 15.276 49.0308 16.3853 49.0053 17.45V17.9919C50.3697 17.4883 51.5619 16.7232 52.5692 15.6904C53.3789 14.7978 53.7997 14.071 53.8252 13.5099L53.8188 13.5036Z" fill="#FFE1E8"/>
<path d="M54.4053 8.72174C57.1404 8.72174 58.594 9.83745 58.7662 12.0753C58.8746 13.497 58.0967 14.9634 56.42 16.4744C54.6285 18.1256 52.3843 19.1712 49.6683 19.6175C50.172 20.3188 52.295 20.5738 53.3024 20.5738C54.3097 20.5738 55.5465 20.2168 56.5539 19.8534C56.6304 19.8279 56.7069 19.8151 56.777 19.8151C57.2743 19.8151 57.6058 20.4208 57.2616 20.8607C56.0183 22.4291 53.6148 24.482 49.5472 24.482C47.2839 24.482 45.6645 23.7297 44.6827 22.2187C43.9877 21.1859 43.6498 19.9554 43.6753 18.5273C43.7008 16.264 44.7082 14.1154 46.691 12.0753C48.8714 9.83745 51.4407 8.72174 54.3989 8.72174M48.9925 17.9854C50.3569 17.4817 51.5491 16.7166 52.5564 15.6838C53.3661 14.7912 53.7869 14.0644 53.8124 13.5034C53.8379 12.7511 53.5319 12.3749 52.8943 12.3749C52.0528 12.3749 51.2048 12.9551 50.3377 14.1154C49.4707 15.2758 49.0244 16.3851 48.9989 17.4498V17.9917M54.4053 6.81546C50.9243 6.81546 47.8704 8.13519 45.3266 10.7492C42.9995 13.14 41.8009 15.7539 41.7691 18.5145C41.7308 20.3124 42.1771 21.9191 43.0888 23.2834C44.0196 24.7115 45.894 26.401 49.5472 26.401C53.2004 26.401 56.5347 24.8582 58.7598 22.0529C59.3782 21.2751 59.493 20.2423 59.0594 19.3497C58.7534 18.7185 58.1988 18.2468 57.5548 18.03C57.6058 17.979 57.6632 17.9344 57.7142 17.8834C59.8309 15.9771 60.8318 13.9688 60.6725 11.9286C60.5577 10.3921 59.7161 6.80908 54.4053 6.80908V6.81546Z" fill="#F53354"/>
<path d="M65.1864 24.4822C62.9231 24.4822 61.3037 23.7299 60.3219 22.2189C59.6269 21.1861 59.289 19.9556 59.3145 18.5275C59.34 16.2642 60.3474 14.1156 62.3302 12.0754C64.5106 9.83764 67.0799 8.72192 70.0382 8.72192C72.7733 8.72192 74.2269 9.83764 74.399 12.0754C74.5074 13.4972 73.7296 14.9636 72.0528 16.4746C70.2613 18.1258 68.0171 19.1714 65.3012 19.6177C65.8048 20.319 67.9279 20.574 68.9352 20.574C69.9425 20.574 71.1794 20.217 72.1867 19.8536C72.7924 19.6368 73.2897 20.3509 72.8944 20.8545C71.6512 22.4229 69.2476 24.4758 65.18 24.4758L65.1864 24.4822ZM69.4644 13.5036C69.4899 12.7513 69.1838 12.3751 68.5463 12.3751C67.7047 12.3751 66.8568 12.9553 65.9897 14.1156C65.1226 15.276 64.6764 16.3853 64.6509 17.45V17.9919C66.0152 17.4883 67.2074 16.7232 68.2148 15.6904C69.0245 14.7978 69.4452 14.071 69.4707 13.5099L69.4644 13.5036Z" fill="#FFE1E8"/>
<path d="M70.0445 8.72174C72.7796 8.72174 74.2332 9.83745 74.4054 12.0753C74.5138 13.497 73.7359 14.9634 72.0592 16.4744C70.2677 18.1256 68.0235 19.1712 65.3075 19.6175C65.8112 20.3188 67.9342 20.5738 68.9415 20.5738C69.9489 20.5738 71.1857 20.2168 72.1931 19.8534C72.2696 19.8279 72.3461 19.8151 72.4162 19.8151C72.9135 19.8151 73.245 20.4208 72.9007 20.8607C71.6575 22.4291 69.2539 24.482 65.1864 24.482C62.9231 24.482 61.3037 23.7297 60.3219 22.2187C59.6269 21.1859 59.289 19.9554 59.3145 18.5273C59.34 16.264 60.3474 14.1154 62.3301 12.0753C64.5106 9.83745 67.0799 8.72174 70.0381 8.72174M64.6317 17.9854C65.9961 17.4817 67.1883 16.7166 68.1956 15.6838C69.0053 14.7912 69.4261 14.0644 69.4516 13.5034C69.4771 12.7511 69.1711 12.3749 68.5335 12.3749C67.6919 12.3749 66.844 12.9551 65.9769 14.1154C65.1099 15.2758 64.6636 16.3851 64.6381 17.4498V17.9917M70.0445 6.81546C66.5635 6.81546 63.5096 8.13519 60.9658 10.7492C58.6387 13.14 57.4401 15.7539 57.4082 18.5145C57.37 20.3124 57.8163 21.9191 58.728 23.2834C59.6588 24.7115 61.5332 26.401 65.1864 26.401C68.8395 26.401 72.1739 24.8582 74.399 22.0529C75.0174 21.2751 75.1322 20.2423 74.6986 19.3497C74.3926 18.7185 73.8379 18.2468 73.194 18.03C73.245 17.979 73.3024 17.9344 73.3534 17.8834C75.4701 15.9771 76.471 13.9688 76.3116 11.9286C76.1969 10.3921 75.3553 6.80908 70.0445 6.80908V6.81546Z" fill="#F53354"/>
<path d="M81.2718 24.4054C80.5577 24.4054 79.8309 24.3226 79.187 23.9974C78.1733 23.4937 77.7652 22.4673 77.7525 21.3834C77.7206 19.9617 78.1541 18.591 79.0531 13.4459H77.3317C77.0257 13.4459 76.8982 13.3057 76.9555 13.0251L77.3317 9.94577C77.3636 9.74813 77.4847 9.65249 77.7079 9.65249H78.3454C78.9702 9.65249 79.4994 9.19983 79.6014 8.58778L80.0923 5.62954C80.2007 4.96011 80.8892 4.29068 82.1452 3.61488C83.3183 3.00283 84.2683 2.69043 84.9951 2.69043C85.384 2.69043 85.5498 2.80519 85.4987 3.02833C85.2437 4.25881 84.7847 6.46474 84.1153 9.65249H86.9205C87.2265 9.65249 87.354 9.79276 87.2966 10.0733L86.9205 13.1527C86.9205 13.3503 86.8121 13.4459 86.589 13.4459H83.6116C83.3757 14.67 83.1398 15.8941 82.9549 17.1246C82.8402 17.8897 82.7636 18.6547 82.6744 19.4198C82.6553 19.5728 82.6361 19.7386 82.6935 19.8852C82.7636 20.0765 82.9422 20.2167 83.1398 20.2805C83.5925 20.4335 84.5552 20.3187 85.3075 20.1912C85.8048 20.1083 86.2 20.5929 86.0088 21.0583C85.4796 22.3653 84.1854 24.3991 81.2718 24.4054Z" fill="#FFE1E8"/>
<path d="M85.0015 2.69662C85.3904 2.69662 85.5561 2.81138 85.5051 3.03452C85.2501 4.265 84.7911 6.47092 84.1216 9.65868H86.9268C87.2329 9.65868 87.3604 9.79894 87.303 10.0795L86.9268 13.1588C86.9268 13.3565 86.8185 13.4521 86.5953 13.4521H83.618C83.3821 14.6762 83.1462 15.9003 82.9613 17.1308C82.8465 17.8959 82.77 18.6609 82.6808 19.426C82.6616 19.579 82.6425 19.7448 82.6999 19.8914C82.77 20.0827 82.9485 20.2229 83.1462 20.2867C83.2992 20.3377 83.5096 20.3568 83.7582 20.3568C84.23 20.3568 84.8166 20.2803 85.3138 20.191C85.3521 20.1847 85.3904 20.1783 85.4286 20.1783C85.8685 20.1783 86.1937 20.6246 86.0152 21.0581C85.486 22.3651 84.1918 24.3989 81.2781 24.4053H81.2718C80.5577 24.4053 79.8373 24.3224 79.1933 23.9972C78.1796 23.4936 77.7716 22.4671 77.7589 21.3833C77.727 19.9615 78.1605 18.5908 79.0595 13.4457H77.3381C77.0321 13.4457 76.9045 13.3055 76.9619 13.025L77.3381 9.94558C77.37 9.74794 77.4911 9.65231 77.7142 9.65231H78.3518C78.9766 9.65231 79.5058 9.19965 79.6078 8.5876L80.0987 5.62936C80.2071 4.95993 80.8956 4.2905 82.1516 3.61469C83.3247 3.00264 84.2746 2.69024 85.0015 2.69024M85.0015 0.777588C83.9559 0.777588 82.7318 1.15374 81.2654 1.91881C79.4229 2.90064 78.4283 4.00998 78.2115 5.31058L77.8099 7.73328H77.7079C76.5411 7.73328 75.6103 8.52384 75.4382 9.65231V9.70969L75.062 12.7381C74.9536 13.4075 75.113 14.045 75.5147 14.536C75.7123 14.7782 76.114 15.1544 76.7707 15.2946C76.624 16.0852 76.4965 16.7546 76.3817 17.3412C76.0056 19.3112 75.8143 20.2994 75.8335 21.4151C75.859 23.3533 76.7707 24.9217 78.3263 25.6995C79.1423 26.1075 80.105 26.3052 81.259 26.3052C84.2364 26.3052 86.6081 24.6475 87.7748 21.7658C88.0936 20.9752 88.0043 20.089 87.5261 19.3877C87.048 18.68 86.2574 18.2593 85.4095 18.2593C85.2628 18.2593 85.1162 18.272 84.9759 18.2975C84.8867 18.3103 84.7974 18.3294 84.7145 18.3421C84.7528 18.0234 84.7911 17.711 84.8421 17.4049C84.9441 16.7291 85.0652 16.0406 85.1927 15.352H86.5889C87.813 15.352 88.7503 14.4849 88.8331 13.3055L89.1965 10.3536C89.3049 9.68419 89.1455 9.05301 88.7439 8.55572C88.4952 8.24969 87.9278 7.73965 86.9268 7.73965H86.4742C86.8886 5.78237 87.1819 4.34788 87.3731 3.43618C87.5134 2.79863 87.3731 2.14832 86.9779 1.64466C86.6655 1.24938 86.0725 0.777588 85.0015 0.777588Z" fill="#F53354"/>
<path d="M103.828 12.7769C104.313 12.4198 104.976 12.8406 104.842 13.4272C104.657 14.2751 104.326 15.123 103.848 15.9774C102.955 17.6286 101.903 18.4511 100.704 18.4511C99.8628 18.4511 99.2954 18.0749 98.983 17.3226C98.9001 17.125 98.728 16.4109 98.4793 15.1868C98.3391 14.4345 98.0713 14.052 97.6824 14.052C97.2361 14.052 96.6751 14.7469 96.0056 16.1431C95.2533 17.7115 94.8453 19.3691 94.7943 21.1352C94.7751 22.1297 94.807 22.9331 94.8899 23.5451C94.9473 23.9404 94.6221 24.2847 94.2269 24.2719C92.7222 24.2018 91.6256 23.7937 90.9371 23.0542C90.2422 22.321 89.917 21.2117 89.9744 19.7198C89.9999 18.9611 90.1593 17.9346 90.4334 16.6404C90.7139 15.3462 90.867 14.3325 90.8925 13.5993C90.9243 13.0893 90.7267 12.8406 90.3059 12.8406C90.2677 12.8406 90.2103 12.8597 90.1338 12.898C89.6301 13.1466 89.0754 12.6111 89.2858 12.0819C89.5281 11.4699 89.9234 10.7877 90.5609 10.1884C91.7085 9.07905 92.4863 8.51163 92.9071 8.48613C93.6594 8.42875 94.2779 8.77303 94.7496 9.51259C95.1386 10.1693 95.3362 10.9407 95.3362 11.8205C95.3362 12.0755 95.3234 12.3178 95.2979 12.5473C96.3627 11.0937 97.0193 10.233 97.268 9.9525C98.2179 8.97705 99.238 8.48613 100.328 8.48613C101.195 8.48613 101.737 8.89416 101.96 9.70385C102.018 10.4307 102.088 11.1575 102.171 11.8843C102.254 12.694 102.592 13.102 103.178 13.102C103.337 13.102 103.548 13 103.828 12.796V12.7769Z" fill="#FFE1E8"/>
<path d="M93.0665 8.46702C93.7487 8.46702 94.3161 8.81129 94.756 9.49985C95.1449 10.1565 95.3426 10.928 95.3426 11.8078C95.3426 12.0628 95.3298 12.3051 95.3043 12.5346C96.369 11.081 97.0257 10.2203 97.2744 9.93976C98.2243 8.96431 99.2444 8.47339 100.335 8.47339C101.202 8.47339 101.744 8.88142 101.967 9.69111C102.024 10.4179 102.094 11.1447 102.177 11.8715C102.26 12.6812 102.598 13.0893 103.184 13.0893C103.344 13.0893 103.554 12.9873 103.835 12.7832C103.956 12.694 104.096 12.6494 104.224 12.6494C104.606 12.6494 104.944 12.9936 104.848 13.4272C104.664 14.2751 104.332 15.1231 103.854 15.9774C102.961 17.6286 101.909 18.4511 100.711 18.4511C99.8692 18.4511 99.3018 18.0749 98.9894 17.3226C98.9065 17.125 98.7343 16.4109 98.4857 15.1868C98.3454 14.4345 98.0777 14.052 97.6888 14.052C97.2425 14.052 96.6814 14.7469 96.012 16.1431C95.2597 17.7115 94.8517 19.3692 94.8006 21.1352C94.7815 22.1297 94.8134 22.9331 94.8963 23.5451C94.9473 23.9276 94.6476 24.2719 94.2651 24.2719H94.2332C92.7286 24.2018 91.632 23.7938 90.9435 23.0542C90.2485 22.321 89.9234 21.2117 89.9808 19.7198C90.0063 18.9611 90.1657 17.9347 90.4398 16.6404C90.7203 15.3462 90.8733 14.3325 90.8988 13.5993C90.9307 13.0893 90.7331 12.8406 90.3123 12.8406C90.274 12.8406 90.2167 12.8597 90.1401 12.898C90.0509 12.9426 89.9616 12.9618 89.8787 12.9618C89.4643 12.9618 89.1201 12.5155 89.2922 12.0819C89.5345 11.4699 89.9298 10.7877 90.5673 10.1884C91.7149 9.07906 92.4927 8.51164 92.9135 8.48614C92.9645 8.48614 93.0155 8.48614 93.0665 8.48614M93.0665 6.57349C92.9709 6.57349 92.8752 6.57349 92.7732 6.58624C91.8105 6.65637 90.8542 7.26204 89.2348 8.82404C88.4953 9.51898 87.9151 10.386 87.5134 11.3806C87.201 12.1648 87.2967 13.051 87.7685 13.7523C88.049 14.1604 88.4251 14.4791 88.865 14.6704C88.7949 15.1231 88.6929 15.6522 88.5654 16.2515C88.2594 17.6669 88.0936 18.789 88.0617 19.6624C87.9852 21.6771 88.4889 23.271 89.5536 24.3867C90.5801 25.4896 92.1293 26.1017 94.144 26.1973H94.2587C94.9983 26.1973 95.6996 25.8786 96.1841 25.3239C96.6687 24.7692 96.8854 24.0297 96.7834 23.3028C96.7133 22.7864 96.6878 22.0787 96.7005 21.1925C96.7324 20.1533 96.9173 19.1333 97.2488 18.1578C97.8673 19.5732 99.1169 20.3829 100.698 20.3829C102.037 20.3829 103.969 19.7772 105.524 16.9082C106.079 15.9136 106.481 14.8808 106.704 13.8543C106.869 13.0893 106.691 12.3115 106.206 11.7058C105.716 11.1001 104.989 10.7495 104.211 10.7495C104.128 10.7495 104.052 10.7495 103.969 10.7622C103.93 10.3542 103.892 9.95251 103.867 9.5636L103.854 9.37871L103.803 9.2002C103.35 7.56169 102.05 6.58624 100.328 6.58624C98.8427 6.58624 97.472 7.16641 96.2351 8.30763C95.4446 7.19191 94.3289 6.58624 93.0601 6.58624L93.0665 6.57349Z" fill="#F53354"/>
<path d="M109.93 24.399C109.063 24.399 108.4 24.1185 107.941 23.5574C107.482 22.9964 107.258 22.2696 107.29 21.377C107.316 20.4589 107.603 19.0308 108.151 17.099C108.693 15.1736 108.967 14.1408 108.967 14.0005C108.967 13.2737 108.718 12.9103 108.215 12.9103C108.196 12.9103 108.164 12.9231 108.125 12.9422C107.609 13.1781 107.061 12.6744 107.258 12.1389C107.826 10.6024 108.999 8.54946 111.192 8.54946C112.117 8.54946 112.792 8.74072 113.226 9.36552C113.659 9.99032 113.819 10.8128 113.71 11.8137C113.347 13.516 112.958 15.6837 112.537 18.3104C111.97 20.6438 113.194 20.274 114.189 19.662C114.673 19.3687 115.26 19.7959 115.139 20.3505C114.781 21.989 113.628 24.3862 109.936 24.3862L109.93 24.399ZM114.15 3.89533C114.125 4.55201 113.832 5.18318 113.271 5.78886C112.639 6.47104 111.887 6.81531 111.02 6.81531C109.687 6.81531 109.044 6.15864 109.088 4.84528C109.114 4.1631 109.471 3.50005 110.159 2.86887C110.848 2.23769 111.619 1.92529 112.461 1.92529C112.952 1.92529 113.36 2.14206 113.691 2.5756C114.023 3.00913 114.169 3.44904 114.15 3.89533Z" fill="#FFE1E8"/>
<path d="M112.461 1.92541C112.952 1.92541 113.36 2.14217 113.691 2.57571C114.016 3.00924 114.169 3.44915 114.15 3.89544C114.125 4.55212 113.832 5.1833 113.27 5.78897C112.639 6.47115 111.887 6.81543 111.02 6.81543C109.687 6.81543 109.044 6.15875 109.088 4.84539C109.114 4.16321 109.471 3.50016 110.159 2.86898C110.848 2.23781 111.619 1.92541 112.461 1.92541ZM111.186 8.55594C112.11 8.55594 112.786 8.74721 113.219 9.37201C113.653 9.99681 113.812 10.8193 113.704 11.8202C113.341 13.5225 112.952 15.6901 112.531 18.3169C112.193 19.694 112.486 20.1275 112.984 20.1275C113.328 20.1275 113.774 19.9171 114.182 19.6685C114.291 19.6047 114.405 19.5728 114.514 19.5728C114.896 19.5728 115.228 19.9299 115.132 20.357C114.775 21.9955 113.621 24.3927 109.93 24.3927C109.063 24.3927 108.4 24.1122 107.941 23.5512C107.482 22.9901 107.258 22.2633 107.29 21.3707C107.316 20.4527 107.603 19.0245 108.151 17.0928C108.693 15.1674 108.967 14.1345 108.967 13.9943C108.967 13.2675 108.718 12.904 108.215 12.904C108.196 12.904 108.164 12.9168 108.125 12.9359C108.036 12.9742 107.947 12.9933 107.858 12.9933C107.443 12.9933 107.093 12.5725 107.258 12.1326C107.826 10.5961 108.999 8.54319 111.192 8.54319M112.467 0C111.154 0 109.911 0.503666 108.878 1.44724C107.8 2.42907 107.226 3.55116 107.188 4.76251C107.137 6.22888 107.679 7.12145 108.151 7.61874C107.029 8.43481 106.111 9.73541 105.467 11.4696C105.18 12.2537 105.288 13.1272 105.76 13.8094C106.034 14.2047 106.41 14.5107 106.838 14.6956C106.723 15.1164 106.557 15.722 106.315 16.5827C105.722 18.6803 105.416 20.2295 105.384 21.3197C105.339 22.6841 105.703 23.8444 106.468 24.7753C107.042 25.4702 108.113 26.3118 109.93 26.3118C113.653 26.3118 116.235 24.2907 117 20.7714C117.166 20.0127 116.981 19.2286 116.496 18.6229C116.018 18.0363 115.323 17.6857 114.571 17.6729C114.928 15.5116 115.26 13.6882 115.572 12.2282L115.591 12.1326L115.604 12.037C115.77 10.5642 115.496 9.30825 114.794 8.28817C114.603 8.00765 114.386 7.77176 114.157 7.58049C114.335 7.42748 114.507 7.26809 114.673 7.08958C115.547 6.146 116.012 5.09404 116.057 3.97195C116.101 3.10488 115.808 2.21868 115.215 1.42812C114.526 0.516417 113.551 0.0191265 112.461 0.0191265L112.467 0Z" fill="#F53354"/>
<path d="M134.495 14.0453C134.271 16.1364 133.532 18.0682 132.276 19.8278C130.516 22.3143 128.125 23.736 125.11 24.1058C124.045 24.2461 123.108 24.1632 122.305 23.8508C122.139 25.1705 122.011 26.4648 122.011 27.7271C122.011 30.8001 123.114 31.4313 124.013 31.4377C124.485 31.4377 124.766 31.9732 124.549 32.394C123.439 34.5617 121.814 35.6136 119.665 35.5435C117.37 35.4606 116.273 34.0708 116.356 31.3675C116.414 29.8374 116.885 26.8409 117.778 22.3717C118.671 17.9024 119.136 15.059 119.161 13.8285C119.244 13.2738 119.047 12.9933 118.575 12.9933C118.511 12.9933 118.416 13.0252 118.294 13.0826C117.816 13.3121 117.268 12.904 117.383 12.3876C117.721 10.8384 118.645 8.54956 121.176 8.54956C121.935 8.54956 122.534 8.79821 122.98 9.45488C123.427 10.1116 123.65 10.883 123.65 11.7819C123.65 12.0306 123.618 12.2856 123.567 12.5343C125.939 9.96492 128.285 8.6962 130.606 8.7217C133.232 8.77908 134.546 10.2837 134.546 13.2483C134.546 13.5288 134.533 13.7902 134.507 14.0453H134.495ZM129.005 14.5936C129.031 13.5288 128.604 12.9997 127.705 12.9997C126.723 12.9997 125.735 13.7265 124.727 15.1801C123.803 16.4935 123.299 17.6793 123.216 18.744C123.191 19.2222 123.274 19.6047 123.471 19.898C123.669 20.1913 124.02 20.3251 124.517 20.2933C125.633 20.2359 126.697 19.4581 127.705 17.9471C128.54 16.6592 128.973 15.5435 129.005 14.5936Z" fill="#FFE1E8"/>
<path d="M121.163 8.55597C121.922 8.55597 122.521 8.80461 122.968 9.46129C123.414 10.118 123.637 10.8894 123.637 11.7884C123.637 12.037 123.605 12.292 123.554 12.5407C125.9 9.99683 128.227 8.7281 130.523 8.7281C130.548 8.7281 130.574 8.7281 130.593 8.7281C133.219 8.78548 134.533 10.2901 134.533 13.2547C134.533 13.5352 134.52 13.7966 134.495 14.0517C134.271 16.1428 133.532 18.0746 132.276 19.8343C130.516 22.3207 128.125 23.7424 125.11 24.1122C124.778 24.1569 124.46 24.176 124.153 24.176C123.478 24.176 122.859 24.0676 122.298 23.8572C122.132 25.1769 122.005 26.4712 122.005 27.7335C122.005 30.8065 123.108 31.4377 124.007 31.4441C124.479 31.4441 124.759 31.9796 124.542 32.4004C123.471 34.5043 121.909 35.5563 119.856 35.5563C119.793 35.5563 119.722 35.5563 119.659 35.5563C117.364 35.4734 116.267 34.0835 116.35 31.3803C116.407 29.8502 116.879 26.8537 117.772 22.3845C118.664 17.9152 119.13 15.0717 119.155 13.8413C119.238 13.2866 119.04 13.0061 118.569 13.0061C118.505 13.0061 118.409 13.038 118.288 13.0953C118.192 13.14 118.097 13.1591 118.001 13.1591C117.619 13.1591 117.281 12.8148 117.376 12.4004C117.714 10.8512 118.639 8.56234 121.17 8.56234M124.389 20.2997C124.434 20.2997 124.479 20.2997 124.523 20.2997C125.639 20.2423 126.704 19.4645 127.711 17.9535C128.546 16.6656 128.98 15.5499 129.012 14.6C129.037 13.5352 128.61 13.0061 127.711 13.0061C126.729 13.0061 125.741 13.7329 124.734 15.1865C123.809 16.4999 123.306 17.6857 123.223 18.7504C123.197 19.2286 123.28 19.6111 123.478 19.9044C123.656 20.1722 123.962 20.306 124.396 20.306M121.176 6.65606C118.314 6.65606 116.254 8.60059 115.515 11.9987C115.349 12.7511 115.534 13.5225 116.018 14.1218C116.318 14.4979 116.713 14.7721 117.153 14.9315C117 16.1428 116.656 18.2723 115.904 22.0147C114.979 26.6306 114.501 29.6781 114.444 31.3166C114.329 35.0526 116.254 37.3478 119.595 37.4753C119.691 37.4753 119.78 37.4753 119.863 37.4753C121.801 37.4753 126.251 33.2802 126.251 33.2802L124.179 29.5505C124.179 29.5505 123.924 28.862 123.924 27.7463C123.924 27.198 123.949 26.6369 123.994 26.095C124.051 26.095 124.102 26.095 124.16 26.095C124.549 26.095 124.95 26.0695 125.365 26.0121C128.91 25.585 131.766 23.8827 133.844 20.9436C135.285 18.9289 136.146 16.6784 136.407 14.2557C136.439 13.9305 136.458 13.6054 136.458 13.2547C136.458 9.24452 134.342 6.89196 130.644 6.81545H130.529C128.61 6.81545 126.704 7.49125 124.836 8.83649C124.753 8.68348 124.657 8.53046 124.555 8.38383C124.013 7.58689 122.987 6.64331 121.17 6.64331L121.176 6.65606ZM125.46 17.7558C125.658 17.3032 125.939 16.8123 126.308 16.2958C126.5 16.0217 126.672 15.8049 126.825 15.6264C126.678 15.9771 126.455 16.4042 126.117 16.9206C125.894 17.2522 125.677 17.5327 125.46 17.7622V17.7558Z" fill="#F53354"/>
</svg>
