<svg width="18" height="19" viewBox="0 0 18 19" fill="none" xmlns="http://www.w3.org/2000/svg">
<g clip-path="url(#clip0_6_306)">
<path d="M8.4408 17.3087L8.44078 17.3086L4.05855 12.9264L4.05852 12.9264C2.06033 10.9285 1.46271 7.92335 2.54408 5.31272L2.54408 5.31272C3.6254 2.70212 6.17274 1 8.9984 1H9.00161C11.8273 1 14.3746 2.70212 15.4559 5.31272L15.9179 5.12138L15.4559 5.31272C16.5373 7.92334 15.9397 10.9285 13.9415 12.9264L13.9415 12.9264L9.55923 17.3087C9.43897 17.4289 9.33019 17.5345 9.23356 17.626C9.09639 17.7559 8.90363 17.7559 8.76647 17.626C8.66984 17.5345 8.56106 17.4289 8.4408 17.3087Z" stroke="#BBBBBB" stroke-miterlimit="10" stroke-linecap="round" stroke-linejoin="round"/>
<path d="M12.1 7.7C12.1 9.41208 10.7121 10.8 8.99999 10.8C7.28791 10.8 5.89999 9.41208 5.89999 7.7C5.89999 5.98792 7.28791 4.6 8.99999 4.6C10.7121 4.6 12.1 5.98792 12.1 7.7Z" stroke="#BBBBBB" stroke-miterlimit="10" stroke-linecap="round" stroke-linejoin="round"/>
</g>
<defs>
<clipPath id="clip0_6_306">
<rect width="18" height="18" fill="white" transform="translate(0 0.5)"/>
</clipPath>
</defs>
</svg>
