<svg width="40" height="40" viewBox="0 0 40 40" fill="none" xmlns="http://www.w3.org/2000/svg">
<mask id="mask0_634_887" style="mask-type:luminance" maskUnits="userSpaceOnUse" x="0" y="0" width="40" height="40">
<path d="M0 3.8147e-06H40V40H0V3.8147e-06Z" fill="white"/>
</mask>
<g mask="url(#mask0_634_887)">
<path d="M25.2991 8.73516C25.3225 10.5711 23.8499 12.0781 22.0093 12.1016C20.5514 12.1211 19.2999 11.2023 18.832 9.90703C18.7085 9.56797 18.6389 9.20234 18.6342 8.82109C18.6109 6.98516 20.0835 5.47812 21.9233 5.45391C23.1952 5.4375 24.3092 6.13359 24.8842 7.17109C25.1421 7.63516 25.2913 8.16797 25.2991 8.73516Z" fill="#F53354"/>
<path d="M39.2389 33.1883V35.907C39.2389 36.6812 38.61 37.3086 37.8343 37.3086H2.16557C1.38971 37.3086 0.760803 36.6812 0.760803 35.907V33.1883H39.2389Z" fill="#F7B84F"/>
<path d="M39.239 33.1883H0.760864V26.1312H39.239V33.1883Z" fill="#FAD294"/>
<path d="M39.2389 21.782V26.1313H0.760803V21.782C2.36393 21.782 2.36393 22.7195 3.96713 22.7195C5.57026 22.7195 5.57026 21.782 7.17338 21.782C8.77643 21.782 8.77643 22.7195 10.3796 22.7195C11.9835 22.7195 11.9835 21.782 13.5866 21.782C15.1897 21.782 15.1897 22.7195 16.7928 22.7195C18.396 22.7195 18.396 21.782 19.9991 21.782C21.6022 21.782 21.6022 22.7195 23.2054 22.7195C24.8085 22.7195 24.8085 21.782 26.4117 21.782C28.0156 21.782 28.0156 22.7195 29.6186 22.7195C31.2218 22.7195 31.2218 21.782 32.8249 21.782C34.4288 21.782 34.4289 22.7195 36.0319 22.7195C37.6358 22.7195 37.6358 21.782 39.2389 21.782Z" fill="#FCE9CB"/>
<path d="M39.239 18.3524H0.930359C1.07411 18.0891 1.29997 17.8734 1.58434 17.7445L18.832 9.90704C19.2999 11.2024 20.5515 12.1211 22.0093 12.1016C23.85 12.0781 25.3225 10.5711 25.2991 8.73517C25.2914 8.16798 25.1422 7.63517 24.8843 7.17111L26.5539 6.41329C26.8429 6.28204 27.1695 6.25079 27.4772 6.32892C33.7359 7.91876 37.1922 12.4992 39.1561 17.8875C39.2101 18.0359 39.2374 18.1938 39.239 18.3524Z" fill="#5DD1D1"/>
<path d="M39.2389 18.3524V21.782C37.6358 21.782 37.6358 22.7195 36.0319 22.7195C34.4289 22.7195 34.4288 21.782 32.8249 21.782C31.2218 21.782 31.2218 22.7195 29.6186 22.7195C28.0156 22.7195 28.0156 21.782 26.4117 21.782C24.8085 21.782 24.8085 22.7195 23.2054 22.7195C21.6022 22.7195 21.6022 21.782 19.9991 21.782C18.396 21.782 18.396 22.7195 16.7928 22.7195C15.1897 22.7195 15.1897 21.782 13.5866 21.782C11.9835 21.782 11.9835 22.7195 10.3796 22.7195C8.77643 22.7195 8.77643 21.782 7.17338 21.782C5.57026 21.782 5.57026 22.7195 3.96713 22.7195C2.36393 22.7195 2.36393 21.782 0.760803 21.782V19.0203C0.760803 18.7828 0.820958 18.5539 0.930333 18.3524H39.2389Z" fill="#5DD1D1"/>
<path d="M1.09125 18.3526H39.2392" stroke="black" stroke-width="1.5" stroke-miterlimit="10" stroke-linecap="round" stroke-linejoin="round"/>
<path d="M0.760864 26.131H39.2392" stroke="black" stroke-width="1.5" stroke-miterlimit="10" stroke-linecap="round" stroke-linejoin="round"/>
<path d="M0.760864 21.782C2.36407 21.782 2.36407 22.7195 3.96711 22.7195C5.57032 22.7195 5.57032 21.782 7.17344 21.782C8.77672 21.782 8.77672 22.7195 10.3799 22.7195C11.9832 22.7195 11.9832 21.782 13.5865 21.782C15.1896 21.782 15.1896 22.7195 16.7929 22.7195C18.3959 22.7195 18.3959 21.782 19.999 21.782C21.6023 21.782 21.6023 22.7195 23.2055 22.7195C24.8087 22.7195 24.8087 21.782 26.412 21.782C28.0153 21.782 28.0153 22.7195 29.6187 22.7195C31.222 22.7195 31.222 21.782 32.8252 21.782C34.4288 21.782 34.4288 22.7195 36.0323 22.7195C37.6358 22.7195 37.6358 21.782 39.2392 21.782" stroke="black" stroke-width="1.5" stroke-miterlimit="10" stroke-linecap="round" stroke-linejoin="round"/>
<path d="M25.2989 8.73514C25.3227 10.5709 23.85 12.0782 22.0096 12.1019C20.1693 12.1255 18.658 10.6566 18.6343 8.82092C18.6106 6.98522 20.0832 5.47788 21.9236 5.45413C23.7641 5.43053 25.2752 6.89944 25.2989 8.73514Z" stroke="black" stroke-width="1.5" stroke-miterlimit="10" stroke-linecap="round" stroke-linejoin="round"/>
<path d="M17.3619 13.52C18.5322 14.5937 20.1002 15.2411 21.8155 15.2187C23.3546 15.1992 24.7609 14.6437 25.8585 13.7336" stroke="black" stroke-width="1.5" stroke-miterlimit="10" stroke-linecap="round" stroke-linejoin="round"/>
<path d="M22.0836 6.35138V6.35036C22.0932 4.36771 20.4981 2.74747 18.5105 2.72185L17.3619 2.69138" stroke="black" stroke-width="1.5" stroke-miterlimit="10" stroke-linecap="round" stroke-linejoin="round"/>
<path d="M24.8843 7.17105L26.5538 6.41323C26.8428 6.28206 27.1695 6.25081 27.4772 6.32894C33.7359 7.9187 37.1921 12.4993 39.1562 17.8875C39.2116 18.0399 39.2389 18.2015 39.2389 18.3641V35.907C39.2389 36.6812 38.61 37.3086 37.8343 37.3086H2.16555C1.38977 37.3086 0.760864 36.6812 0.760864 35.907V19.0203C0.760864 18.4711 1.08274 17.9718 1.5843 17.7445L18.832 9.90706" stroke="black" stroke-width="1.5" stroke-miterlimit="10" stroke-linecap="round" stroke-linejoin="round"/>
<path d="M0.760864 33.1883H39.5148" stroke="black" stroke-width="1.5" stroke-miterlimit="10" stroke-linecap="round" stroke-linejoin="round"/>
</g>
</svg>
