<svg width="20" height="20" viewBox="0 0 20 20" fill="none" xmlns="http://www.w3.org/2000/svg">
<path fill-rule="evenodd" clip-rule="evenodd" d="M2.77612 8.25012C2.77612 4.93641 5.46241 2.25012 8.77612 2.25012C12.0898 2.25012 14.7761 4.93641 14.7761 8.25012C14.7761 11.5638 12.0898 14.2501 8.77612 14.2501C5.46241 14.2501 2.77612 11.5638 2.77612 8.25012ZM8.77612 0.250122C4.35785 0.250122 0.776123 3.83184 0.776123 8.25012C0.776123 12.6684 4.35785 16.2501 8.77612 16.2501C10.3539 16.2501 11.825 15.7934 13.0644 15.0049L17.5167 19.4572C17.9072 19.8477 18.5404 19.8477 18.9309 19.4572C19.3214 19.0666 19.3214 18.4335 18.9309 18.0429L14.6111 13.7231C15.9538 12.2922 16.7761 10.3672 16.7761 8.25012C16.7761 3.83184 13.1944 0.250122 8.77612 0.250122Z" fill="#F53354"/>
</svg>
